<svg width="24" height="40" viewBox="0 0 24 40" fill="none" xmlns="http://www.w3.org/2000/svg">
<path d="M2 3.5H8C9.06087 3.5 10.0783 3.92143 10.8284 4.67157C11.5786 5.42172 12 6.43913 12 7.5V21.5C12 20.7044 11.6839 19.9413 11.1213 19.3787C10.5587 18.8161 9.79565 18.5 9 18.5H2V3.5Z" stroke="#383838" stroke-width="1.25" stroke-linecap="round" stroke-linejoin="round"/>
<path d="M22 3.5H16C14.9391 3.5 13.9217 3.92143 13.1716 4.67157C12.4214 5.42172 12 6.43913 12 7.5V21.5C12 20.7044 12.3161 19.9413 12.8787 19.3787C13.4413 18.8161 14.2044 18.5 15 18.5H22V3.5Z" stroke="#383838" stroke-width="1.25" stroke-linecap="round" stroke-linejoin="round"/>
<path d="M1.43848 37.5V30.3613H5.79395V31.3525H2.61035V33.2471H3.46484C4.14193 33.2471 4.68555 33.3366 5.0957 33.5156C5.50586 33.6914 5.80208 33.9372 5.98438 34.2529C6.16667 34.5687 6.25781 34.9316 6.25781 35.3418C6.25781 36.0221 6.04134 36.5527 5.6084 36.9336C5.17871 37.3112 4.48047 37.5 3.51367 37.5H1.43848ZM2.61035 36.5234H3.44043C3.99056 36.5234 4.39909 36.4307 4.66602 36.2451C4.93294 36.0563 5.06641 35.7552 5.06641 35.3418C5.06641 35.0521 5.0013 34.8275 4.87109 34.668C4.74089 34.5052 4.54557 34.3913 4.28516 34.3262C4.02799 34.2611 3.70247 34.2285 3.30859 34.2285H2.61035V36.5234ZM12.0195 37.5H10.8623V32.9932H9.36328C9.29818 33.8135 9.2168 34.515 9.11914 35.0977C9.02148 35.6803 8.89941 36.1556 8.75293 36.5234C8.60645 36.888 8.42578 37.1549 8.21094 37.3242C7.99609 37.4935 7.7373 37.5781 7.43457 37.5781C7.30111 37.5781 7.18066 37.5684 7.07324 37.5488C6.96582 37.5326 6.86979 37.5065 6.78516 37.4707V36.5674C6.84049 36.5869 6.90072 36.6032 6.96582 36.6162C7.03092 36.6292 7.09766 36.6357 7.16602 36.6357C7.28646 36.6357 7.39714 36.5869 7.49805 36.4893C7.60221 36.3883 7.69824 36.2305 7.78613 36.0156C7.87402 35.8008 7.95378 35.5176 8.02539 35.166C8.09701 34.8112 8.16211 34.3815 8.2207 33.877C8.2793 33.3691 8.33138 32.7751 8.37695 32.0947H12.0195V37.5ZM18.4502 34.7852C18.4502 35.2344 18.3916 35.6331 18.2744 35.9814C18.1572 36.3298 17.9863 36.6243 17.7617 36.8652C17.5371 37.1029 17.2669 37.2852 16.9512 37.4121C16.6354 37.5358 16.279 37.5977 15.8818 37.5977C15.5107 37.5977 15.1706 37.5358 14.8613 37.4121C14.5521 37.2852 14.2835 37.1029 14.0557 36.8652C13.8311 36.6243 13.6569 36.3298 13.5332 35.9814C13.4095 35.6331 13.3477 35.2344 13.3477 34.7852C13.3477 34.1895 13.4502 33.6849 13.6553 33.2715C13.8636 32.8548 14.1598 32.5374 14.5439 32.3193C14.9281 32.1012 15.3854 31.9922 15.916 31.9922C16.4141 31.9922 16.8535 32.1012 17.2344 32.3193C17.6152 32.5374 17.9131 32.8548 18.1279 33.2715C18.3428 33.6882 18.4502 34.1927 18.4502 34.7852ZM14.5293 34.7852C14.5293 35.179 14.5765 35.516 14.6709 35.7959C14.7686 36.0758 14.9183 36.2907 15.1201 36.4404C15.3219 36.5869 15.5824 36.6602 15.9014 36.6602C16.2204 36.6602 16.4808 36.5869 16.6826 36.4404C16.8844 36.2907 17.0326 36.0758 17.127 35.7959C17.2214 35.516 17.2686 35.179 17.2686 34.7852C17.2686 34.3913 17.2214 34.0576 17.127 33.7842C17.0326 33.5075 16.8844 33.2975 16.6826 33.1543C16.4808 33.0078 16.2188 32.9346 15.8965 32.9346C15.4212 32.9346 15.0745 33.0941 14.8564 33.4131C14.6383 33.7321 14.5293 34.1895 14.5293 34.7852ZM23.2744 32.0947V32.998H20.9209V37.5H19.7686V32.0947H23.2744Z" fill="#383838"/>
</svg>
