<svg width="49" height="40" viewBox="0 0 49 40" fill="none" xmlns="http://www.w3.org/2000/svg">
<path d="M34.5 17.4201V20.4201C34.5011 20.6986 34.4441 20.9743 34.3325 21.2294C34.2209 21.4846 34.0573 21.7137 33.8521 21.902C33.6468 22.0902 33.4046 22.2336 33.1407 22.3228C32.8769 22.412 32.5974 22.4452 32.32 22.4201C29.2428 22.0857 26.287 21.0342 23.69 19.3501C21.2738 17.8148 19.2253 15.7663 17.69 13.3501C16 10.7413 14.9482 7.77109 14.62 4.6801C14.595 4.40356 14.6279 4.12486 14.7165 3.86172C14.8051 3.59859 14.9476 3.35679 15.1348 3.15172C15.322 2.94665 15.5498 2.78281 15.8038 2.67062C16.0578 2.55843 16.3323 2.50036 16.61 2.5001H19.61C20.0953 2.49532 20.5658 2.66718 20.9338 2.98363C21.3017 3.30008 21.5421 3.73954 21.61 4.2201C21.7366 5.18016 21.9714 6.12282 22.31 7.0301C22.4445 7.38802 22.4737 7.77701 22.3939 8.15098C22.3141 8.52494 22.1289 8.86821 21.86 9.1401L20.59 10.4101C22.0135 12.9136 24.0864 14.9865 26.59 16.4101L27.86 15.1401C28.1319 14.8712 28.4751 14.6859 28.8491 14.6062C29.2231 14.5264 29.6121 14.5556 29.97 14.6901C30.8773 15.0286 31.8199 15.2635 32.78 15.3901C33.2658 15.4586 33.7094 15.7033 34.0265 16.0776C34.3437 16.4519 34.5122 16.9297 34.5 17.4201Z" stroke="#383838" stroke-width="1.25" stroke-linecap="round" stroke-linejoin="round"/>
<path d="M6.49219 37.5H5.12988L2.19531 33.877V37.5H1.02344V30.3613H2.19531V33.8184L5.07617 30.3613H6.35547L3.47461 33.8086L6.49219 37.5ZM12.1074 34.7852C12.1074 35.2344 12.0488 35.6331 11.9316 35.9814C11.8145 36.3298 11.6436 36.6243 11.4189 36.8652C11.1943 37.1029 10.9242 37.2852 10.6084 37.4121C10.2926 37.5358 9.9362 37.5977 9.53906 37.5977C9.16797 37.5977 8.8278 37.5358 8.51855 37.4121C8.20931 37.2852 7.94076 37.1029 7.71289 36.8652C7.48828 36.6243 7.31413 36.3298 7.19043 35.9814C7.06673 35.6331 7.00488 35.2344 7.00488 34.7852C7.00488 34.1895 7.10742 33.6849 7.3125 33.2715C7.52083 32.8548 7.81706 32.5374 8.20117 32.3193C8.58529 32.1012 9.04264 31.9922 9.57324 31.9922C10.0713 31.9922 10.5107 32.1012 10.8916 32.3193C11.2725 32.5374 11.5703 32.8548 11.7852 33.2715C12 33.6882 12.1074 34.1927 12.1074 34.7852ZM8.18652 34.7852C8.18652 35.179 8.23372 35.516 8.32812 35.7959C8.42578 36.0758 8.57552 36.2907 8.77734 36.4404C8.97917 36.5869 9.23958 36.6602 9.55859 36.6602C9.8776 36.6602 10.138 36.5869 10.3398 36.4404C10.5417 36.2907 10.6898 36.0758 10.7842 35.7959C10.8786 35.516 10.9258 35.179 10.9258 34.7852C10.9258 34.3913 10.8786 34.0576 10.7842 33.7842C10.6898 33.5075 10.5417 33.2975 10.3398 33.1543C10.138 33.0078 9.87598 32.9346 9.55371 32.9346C9.07845 32.9346 8.73177 33.0941 8.51367 33.4131C8.29557 33.7321 8.18652 34.1895 8.18652 34.7852ZM14.5781 32.0947V34.2676H17.1074V32.0947H18.2598V37.5H17.1074V35.166H14.5781V37.5H13.4258V32.0947H14.5781ZM23.9824 32.998H22.2051V37.5H21.0625V32.998H19.2949V32.0947H23.9824V32.998ZM27.1465 31.9922C27.8301 31.9922 28.346 32.1436 28.6943 32.4463C29.0459 32.749 29.2217 33.221 29.2217 33.8623V37.5H28.4062L28.1865 36.7334H28.1475C27.9945 36.9287 27.8366 37.0898 27.6738 37.2168C27.5111 37.3438 27.3223 37.4382 27.1074 37.5C26.8958 37.5651 26.637 37.5977 26.3311 37.5977C26.0088 37.5977 25.7207 37.5391 25.4668 37.4219C25.2129 37.3014 25.0127 37.1191 24.8662 36.875C24.7197 36.6309 24.6465 36.3216 24.6465 35.9473C24.6465 35.3906 24.8532 34.9723 25.2666 34.6924C25.6833 34.4124 26.3115 34.2578 27.1514 34.2285L28.0889 34.1943V33.9111C28.0889 33.5368 28.001 33.2699 27.8252 33.1104C27.6527 32.9508 27.4085 32.8711 27.0928 32.8711C26.8226 32.8711 26.5605 32.9102 26.3066 32.9883C26.0527 33.0664 25.8053 33.1624 25.5645 33.2764L25.1934 32.4658C25.457 32.3258 25.7565 32.2119 26.0918 32.124C26.4303 32.0361 26.7819 31.9922 27.1465 31.9922ZM28.084 34.917L27.3857 34.9414C26.8128 34.9609 26.4108 35.0586 26.1797 35.2344C25.9486 35.4102 25.833 35.651 25.833 35.957C25.833 36.224 25.9128 36.4193 26.0723 36.543C26.2318 36.6634 26.4417 36.7236 26.7021 36.7236C27.0993 36.7236 27.4281 36.6113 27.6885 36.3867C27.9521 36.1589 28.084 35.8252 28.084 35.3857V34.917ZM34.1777 32.0947H35.4424L33.2061 34.6924L35.6328 37.5H34.3096L31.9805 34.7559V37.5H30.8281V32.0947H31.9805V34.7168L34.1777 32.0947ZM40.5938 32.998H38.8164V37.5H37.6738V32.998H35.9062V32.0947H40.5938V32.998ZM41.6387 37.5V32.0947H42.791V34.2529H43.8799C44.3877 34.2529 44.806 34.3115 45.1348 34.4287C45.4635 34.5426 45.7077 34.7152 45.8672 34.9463C46.0267 35.1774 46.1064 35.4671 46.1064 35.8154C46.1064 36.1572 46.0299 36.4551 45.877 36.709C45.724 36.9596 45.4847 37.1549 45.1592 37.2949C44.8337 37.4316 44.4072 37.5 43.8799 37.5H41.6387ZM42.791 36.6553H43.8018C44.1468 36.6553 44.4251 36.5934 44.6367 36.4697C44.8516 36.3428 44.959 36.1344 44.959 35.8447C44.959 35.5745 44.8597 35.3841 44.6611 35.2734C44.4658 35.1595 44.1794 35.1025 43.8018 35.1025H42.791V36.6553ZM46.9414 37.5V32.0947H48.0938V37.5H46.9414Z" fill="#383838"/>
</svg>
