<svg width="152" height="40" viewBox="0 0 152 40" fill="none" xmlns="http://www.w3.org/2000/svg">
<path d="M44.4094 25.1445C45.2106 25.5245 45.8255 26.0542 46.062 26.8973C46.5461 28.6195 46.062 30.3639 43.7222 30.974C42.9253 31.1713 42.1088 31.2792 41.2879 31.2957C38.8897 31.3761 36.4916 31.4011 34.0934 31.3511C33.8931 31.3511 33.6955 31.3262 33.498 31.304C32.5549 31.1958 32.1459 30.7799 32.107 29.8314C32.0569 28.2728 31.9846 26.7142 31.8733 25.1584C31.723 23.0951 31.5478 21.0345 31.3864 18.974C31.2751 17.5291 31.1666 16.0842 31.0748 14.6393C31.0728 14.3297 31.0998 14.0205 31.1555 13.7158C31.1867 13.4609 31.2913 13.2205 31.4567 13.0236C31.6221 12.8267 31.8412 12.6818 32.0875 12.6065C32.8333 12.3271 33.6177 12.1635 34.4133 12.1212C36.2133 11.9825 38.0134 11.9132 39.7939 12.3098C42.2394 12.8506 44.3148 13.9737 45.5055 16.2673C46.0747 17.3179 46.4087 18.4789 46.4846 19.6706C46.5605 20.8622 46.3764 22.056 45.9451 23.17C45.618 23.9523 45.0879 24.6338 44.4094 25.1445ZM38.8925 23.4806V24.2571C38.8925 24.956 38.8925 24.956 39.588 24.8117C40.0157 24.7436 40.3989 24.5091 40.6534 24.1597C40.9079 23.8103 41.013 23.3746 40.9457 22.9481C40.8038 21.9053 40.2474 21.4172 39.2764 21.4588C39.0622 21.4588 38.9732 21.5282 38.9676 21.7556C38.9593 22.3213 38.9231 22.901 38.8925 23.4806ZM38.8591 27.5129H38.8285C38.8285 27.7903 38.8285 28.0842 38.8285 28.3671C38.8285 28.5335 38.8702 28.6139 39.0539 28.6167C39.4672 28.6397 39.8758 28.5202 40.2112 28.2783C40.3459 28.1876 40.4536 28.0626 40.5234 27.9162C40.5931 27.7699 40.6223 27.6076 40.6078 27.4463C40.5933 27.2849 40.5357 27.1304 40.441 26.9987C40.3463 26.867 40.218 26.7631 40.0693 26.6976C39.7472 26.5676 39.4062 26.4898 39.0594 26.4674C38.9009 26.4424 38.8619 26.5312 38.8619 26.6615C38.8619 26.9444 38.8591 27.23 38.8591 27.5129Z" fill="#F77833"/>
<path d="M106.595 25.1195C105.347 26.6311 104.187 28.2126 103.12 29.8563C103.07 29.9276 103.025 30.0017 102.984 30.0782C102.819 30.4427 102.549 30.7501 102.208 30.961C101.867 31.1719 101.471 31.2768 101.07 31.2624C99.8149 31.3151 98.5583 31.2984 97.3054 31.2124C96.8464 31.1681 96.749 31.0488 96.6711 30.594C96.5442 29.574 96.4921 28.546 96.5153 27.5184C96.5153 24.5603 96.5227 21.6104 96.5376 18.6689C96.5376 17.0049 96.571 15.3409 96.5877 13.6908C96.5877 13.616 96.5877 13.5411 96.5877 13.4662C96.6127 12.8145 96.6989 12.7063 97.3527 12.6925C98.3821 12.6703 99.4143 12.6758 100.446 12.6925C100.978 12.6925 101.072 12.7951 101.07 13.3386C101.07 14.5034 101.036 15.6654 101.022 16.8302C101.022 17.5069 101.022 18.1863 101.022 18.8991C101.518 18.1309 101.988 17.3821 102.48 16.6499C103.316 15.402 104.264 14.2324 105.312 13.1556C105.475 12.9855 105.671 12.851 105.888 12.7608C106.106 12.6705 106.34 12.6265 106.575 12.6314C107.731 12.6097 108.887 12.6476 110.039 12.7451C110.657 12.7978 110.807 12.9504 110.807 13.5549C110.807 16.3689 110.797 19.1819 110.776 21.9941C110.76 24.6453 110.726 27.2966 110.704 29.9478C110.704 31.0239 110.565 31.1875 109.508 31.2319C108.737 31.2712 107.965 31.2647 107.196 31.2124C106.573 31.1653 106.361 30.9684 106.389 30.3444C106.445 28.6999 106.523 27.0553 106.592 25.4107C106.595 25.3442 106.595 25.2859 106.595 25.1195Z" fill="#F77833"/>
<path d="M57.1236 12.7452C58.7622 12.7452 60.0309 12.7452 61.2967 12.7452C61.6222 12.7452 61.8253 12.845 61.8281 13.2056C61.8658 15.5345 61.64 17.8603 61.1549 20.1388C61.1549 20.1887 61.1382 20.2386 61.1242 20.2858C60.9045 21.1177 60.8961 21.0928 60.0337 21.0401C59.0293 20.9791 58.0222 20.9735 57.0151 20.9375C56.8231 20.9375 56.7369 20.9652 56.723 21.1926C56.6479 22.3019 56.6423 22.3019 57.7468 22.277C58.6398 22.2437 59.5301 22.166 60.4259 22.1355C61.0797 22.1134 61.3301 22.4295 61.1994 23.0701C61.0936 23.5663 60.9598 24.0561 60.7987 24.5372C60.7452 24.7286 60.6356 24.8997 60.4839 25.0287C60.3323 25.1576 60.1455 25.2385 59.9474 25.261C58.9877 25.3991 58.0163 25.4391 57.0485 25.3803C56.6729 25.3803 56.5783 25.4746 56.5672 25.8434C56.5394 26.8889 56.5199 26.8751 57.591 26.9056C58.5369 26.9333 59.4772 26.8085 60.4232 26.8168C60.8182 26.8168 60.9796 26.9583 60.9796 27.3382C61.0037 28.2918 60.9665 29.2459 60.8683 30.1947C60.8638 30.3482 60.8058 30.4952 60.7042 30.6106C60.6027 30.7261 60.4639 30.8026 60.3119 30.827C59.4638 31.0203 58.5972 31.1216 57.7273 31.1293C56.0998 31.2042 54.4695 31.1875 52.8419 31.1681C52.1208 31.1941 51.3991 31.1364 50.6914 30.9962C50.1127 30.8547 49.9402 30.6773 49.8568 30.106C49.6147 28.4891 49.4979 26.8584 49.3755 25.2278C49.1473 22.2021 48.9776 19.1737 48.8357 16.1452C48.8051 15.5129 48.7801 14.8834 48.755 14.2511C48.7356 13.7158 48.8357 13.5522 49.3449 13.3525C50.1092 13.0914 50.9078 12.9428 51.7152 12.9116C53.6404 12.7397 55.5684 12.7341 57.1236 12.7452Z" fill="#F77833"/>
<path d="M63.5363 21.6751C63.5363 17.1408 66.3323 13.4717 70.6362 12.4345C72.5336 11.9741 74.456 12.0601 76.3729 12.3818C77.0907 12.5011 77.4579 12.8893 77.5943 13.6076C77.8548 15.0731 77.9989 16.5568 78.0255 18.0449C78.045 18.6383 78.07 19.2318 78.0756 19.8253C78.0811 20.4188 77.8669 20.6018 77.2632 20.477C76.4011 20.2823 75.5118 20.2363 74.6341 20.3411C72.8174 20.5852 71.6378 22.0661 71.7546 23.9714C71.8687 25.8295 73.2486 27.18 75.0459 27.2078C75.5931 27.2295 76.1397 27.1524 76.6595 26.9804C76.7568 26.9372 76.8635 26.9191 76.9697 26.9277C77.0759 26.9363 77.1783 26.9713 77.2674 27.0295C77.3565 27.0877 77.4296 27.1673 77.4799 27.261C77.5302 27.3546 77.5561 27.4593 77.5553 27.5655C77.5854 28.3203 77.5529 29.0763 77.4579 29.8258C77.419 30.1641 77.1463 30.3194 76.882 30.4608C76.159 30.8264 75.3703 31.0451 74.5618 31.1042C72.1692 31.3427 69.8712 31.021 67.7595 29.8119C65.3669 28.4419 64.1233 26.3009 63.6893 23.6413C63.5796 22.9918 63.5284 22.3337 63.5363 21.6751Z" fill="#F77833"/>
<path d="M144.665 18.9129C144.665 19.2235 144.665 19.5341 144.665 19.842C144.665 20.4244 144.451 20.6046 143.875 20.4743C143.293 20.3428 142.699 20.2758 142.103 20.2746C140.87 20.2746 139.735 20.5519 138.998 21.6363C138.603 22.1847 138.372 22.8338 138.333 23.508C138.293 24.1821 138.447 24.8535 138.775 25.444C139.393 26.6698 140.464 27.2023 141.836 27.2023C142.321 27.2081 142.803 27.1321 143.263 26.9776C143.365 26.9329 143.477 26.9156 143.588 26.9276C143.699 26.9395 143.804 26.9802 143.894 27.0456C143.984 27.111 144.056 27.1988 144.101 27.3002C144.147 27.4017 144.165 27.5133 144.153 27.6238C144.17 28.3422 144.142 29.0609 144.07 29.7759C144.047 29.9171 143.987 30.05 143.898 30.1617C143.808 30.2735 143.691 30.3603 143.558 30.4137C142.81 30.8127 141.984 31.0472 141.137 31.1015C138.77 31.3372 136.494 31.0128 134.402 29.8313C132.098 28.5279 130.819 26.5034 130.346 23.9381C129.964 21.9303 130.017 19.9252 130.799 18.0227C132.19 14.6948 134.694 12.7535 138.28 12.2459C139.824 12.0398 141.39 12.081 142.921 12.368C143.708 12.5094 144.086 12.9226 144.217 13.7019C144.399 14.7384 144.517 15.7849 144.57 16.8357C144.604 17.5263 144.57 18.2224 144.57 18.9129H144.665Z" fill="#F77833"/>
<path d="M17.9762 24.6257C17.87 26.6465 17.87 28.6715 17.9762 30.6924C18.013 31.3883 17.9762 31.4784 17.2698 31.5807C16.8845 31.638 16.4955 31.6667 16.1059 31.6667C14.4017 31.6667 12.7016 31.6667 11.0055 31.6667C10.7156 31.6667 10.4257 31.6667 10.1357 31.6421C9.58852 31.6421 9.43743 31.5111 9.29042 30.9708C9.12947 30.2818 9.03916 29.5781 9.0209 28.8707C8.80311 25.4321 8.59893 21.9948 8.40836 18.5589C8.2246 15.3455 8 12.1361 8 8.91442C8 8.39862 8.05717 8.31675 8.58395 8.22669C9.83173 8.0596 11.0904 7.98844 12.349 8.01382C13.9008 7.98926 15.4526 8.01382 17.0002 8.01382C17.5148 8.01382 17.5556 8.04657 17.5393 8.57874C17.4699 10.6255 17.5393 12.6723 17.6332 14.7191C17.6781 15.8203 17.7598 16.9215 17.9109 18.0391C18.3192 17.0238 18.7766 15.9923 19.1931 14.9893C20.0711 12.8279 20.8919 10.646 21.5739 8.41499C21.5798 8.35268 21.5984 8.29224 21.6285 8.2374C21.6586 8.18256 21.6996 8.13448 21.749 8.09613C21.7983 8.05777 21.855 8.02996 21.9155 8.01439C21.976 7.99883 22.039 7.99585 22.1007 8.00563C24.3921 8.04222 26.6779 8.24332 28.9407 8.60739C29.7982 8.76295 29.8309 8.84892 29.5614 9.67173C28.4425 13.0981 26.956 16.3443 24.7305 19.2016C24.5502 19.3771 24.4386 19.6116 24.4161 19.8625C24.3936 20.1134 24.4617 20.364 24.608 20.5689C27.1153 23.8438 29.0999 26.2304 30.1984 29.8041C30.3536 30.3117 30.2801 30.4713 29.7901 30.6637C28.9159 30.9617 28.0048 31.1367 27.0826 31.1836C25.6044 31.3351 24.122 31.3883 22.6356 31.4047C22.5073 31.4247 22.3763 31.3928 22.2714 31.3161C22.1665 31.2393 22.0963 31.1239 22.0762 30.9953C21.3983 29.0754 20.357 27.2497 18.2784 24.9081C18.2294 24.7812 18.0334 24.7321 17.9762 24.6257Z" fill="#F77833"/>
<path d="M120.638 25.4465C120.554 27.0404 120.554 28.6376 120.638 30.2315C120.667 30.7804 120.638 30.8514 120.079 30.9321C119.774 30.9773 119.466 30.9999 119.158 30.9999C117.809 30.9999 116.464 30.9999 115.122 30.9999C114.892 30.9999 114.663 30.9999 114.433 30.9805C114 30.9805 113.881 30.8772 113.764 30.451C113.637 29.9076 113.566 29.3526 113.551 28.7947C113.379 26.0825 113.217 23.3714 113.066 20.6614C112.921 18.1269 112.743 15.5955 112.743 13.0545C112.743 12.6477 112.789 12.5831 113.205 12.512C114.193 12.3803 115.189 12.3241 116.185 12.3442C117.413 12.3248 118.641 12.3442 119.865 12.3442C120.272 12.3442 120.305 12.37 120.292 12.7897C120.237 14.4041 120.292 16.0185 120.366 17.6329C120.402 18.5014 120.466 19.3699 120.586 20.2514C120.909 19.4507 121.271 18.637 121.601 17.846C122.295 16.1412 122.945 14.4202 123.484 12.6606C123.489 12.6114 123.504 12.5637 123.528 12.5205C123.551 12.4772 123.584 12.4393 123.623 12.4091C123.662 12.3788 123.707 12.3569 123.755 12.3446C123.803 12.3323 123.852 12.33 123.901 12.3377C125.714 12.3666 127.523 12.5252 129.314 12.8123C129.992 12.935 130.018 13.0028 129.805 13.6518C128.92 16.3543 127.743 18.9147 125.982 21.1683C125.84 21.3067 125.751 21.4917 125.734 21.6896C125.716 21.8875 125.77 22.0852 125.885 22.2468C127.869 24.8298 129.44 26.7121 130.309 29.5308C130.432 29.9312 130.374 30.0571 129.986 30.2089C129.294 30.4439 128.573 30.5819 127.844 30.6189C126.674 30.7384 125.501 30.7804 124.325 30.7933C124.223 30.8091 124.119 30.7839 124.036 30.7234C123.953 30.6628 123.898 30.5718 123.882 30.4704C123.345 28.9561 122.521 27.5161 120.877 25.6692C120.838 25.5691 120.683 25.5304 120.638 25.4465Z" fill="#F77833"/>
<path d="M85.5455 12.3734C88.1328 12.3493 90.7174 12.4048 93.2992 12.5398C94.4927 12.6036 94.54 12.6313 94.5762 13.8349C94.6457 16.0147 94.6346 18.1945 94.5205 20.3743C94.4955 20.8291 94.3564 20.965 93.8973 20.9678C93.0404 20.9678 92.1808 20.9678 91.3239 20.9678C91.0652 20.9678 90.9984 21.0399 90.9817 21.2978C90.8092 24.3484 90.5282 27.3713 90.1805 30.3997C90.1656 30.5608 90.0965 30.712 89.9843 30.8289C89.8721 30.9457 89.7236 31.0212 89.5628 31.0431C89.1745 31.1334 88.7763 31.1744 88.3777 31.1651C87.2648 31.1651 86.152 31.1651 85.0391 31.0625C84.5495 31.0209 84.3993 30.8989 84.3659 30.408C84.2657 28.8883 84.1823 27.3574 84.071 25.8488C83.9597 24.2791 83.8178 22.7122 83.7009 21.1342C83.6843 20.8735 83.5229 20.8735 83.3476 20.8568C82.5408 20.8568 81.7312 20.8374 80.9244 20.8319C80.2233 20.8319 80.1454 20.7487 80.1037 20.0526C79.9869 18.0115 79.998 15.9675 80.0564 13.9236C80.0564 13.6019 80.0926 13.2802 80.112 12.9585C80.1076 12.8845 80.1189 12.8104 80.1453 12.7411C80.1717 12.6718 80.2125 12.6089 80.2651 12.5565C80.3177 12.504 80.3808 12.4633 80.4504 12.437C80.5199 12.4107 80.5942 12.3994 80.6685 12.4039C82.2904 12.3318 83.918 12.3956 85.5455 12.3734Z" fill="#F77833"/>
</svg>
