<svg width="37" height="40" viewBox="0 0 37 40" fill="none" xmlns="http://www.w3.org/2000/svg">
<path fill-rule="evenodd" clip-rule="evenodd" d="M14.5 14.875C13.2734 14.875 12.097 15.3623 11.2296 16.2296C10.3623 17.097 9.875 18.2734 9.875 19.5V21.5C9.875 21.8452 10.1548 22.125 10.5 22.125H26.5C26.8452 22.125 27.125 21.8452 27.125 21.5V19.5C27.125 18.2734 26.6377 17.097 25.7704 16.2296C24.903 15.3623 23.7266 14.875 22.5 14.875H14.5ZM25.875 20.875V19.5C25.875 18.6049 25.5194 17.7465 24.8865 17.1135C24.2535 16.4806 23.3951 16.125 22.5 16.125H14.5C13.6049 16.125 12.7464 16.4806 12.1135 17.1135C11.4806 17.7465 11.125 18.6049 11.125 19.5V20.875H25.875Z" fill="#383838"/>
<path d="M18.5 11.5C20.7091 11.5 22.5 9.70914 22.5 7.5C22.5 5.29086 20.7091 3.5 18.5 3.5C16.2909 3.5 14.5 5.29086 14.5 7.5C14.5 9.70914 16.2909 11.5 18.5 11.5Z" stroke="#383838" stroke-width="1.25" stroke-linecap="round" stroke-linejoin="round"/>
<path d="M5.61914 32.0312C5.61914 32.513 5.45801 32.8988 5.13574 33.1885C4.81673 33.4749 4.40007 33.6572 3.88574 33.7354V33.7695C4.50423 33.8444 4.97786 34.0299 5.30664 34.3262C5.63542 34.6191 5.7998 35.0033 5.7998 35.4785C5.7998 35.8952 5.69076 36.263 5.47266 36.582C5.25456 36.901 4.92904 37.1501 4.49609 37.3291C4.06315 37.5081 3.52604 37.5977 2.88477 37.5977C2.41927 37.5977 1.99447 37.5651 1.61035 37.5C1.22624 37.4382 0.88444 37.3405 0.584961 37.207V36.1914C0.790039 36.2891 1.01465 36.3737 1.25879 36.4453C1.50618 36.5137 1.75684 36.5674 2.01074 36.6064C2.2679 36.6423 2.50879 36.6602 2.7334 36.6602C3.37142 36.6602 3.84505 36.5527 4.1543 36.3379C4.46354 36.123 4.61816 35.8187 4.61816 35.4248C4.61816 35.0212 4.41797 34.7266 4.01758 34.541C3.61719 34.3555 3.06868 34.2627 2.37207 34.2627H1.52246V33.3252H2.31836C2.83594 33.3252 3.25098 33.2796 3.56348 33.1885C3.87598 33.0973 4.10221 32.9671 4.24219 32.7979C4.38216 32.6286 4.45215 32.4268 4.45215 32.1924C4.45215 31.8831 4.32845 31.6423 4.08105 31.4697C3.83691 31.2939 3.49837 31.2061 3.06543 31.2061C2.65527 31.2061 2.29557 31.2614 1.98633 31.3721C1.67708 31.4827 1.38249 31.6276 1.10254 31.8066L0.570312 31.0205C0.788411 30.8708 1.02604 30.7389 1.2832 30.625C1.54362 30.5111 1.83008 30.4215 2.14258 30.3564C2.45508 30.2913 2.7985 30.2588 3.17285 30.2588C3.69368 30.2588 4.13477 30.3353 4.49609 30.4883C4.86068 30.638 5.139 30.8464 5.33105 31.1133C5.52311 31.3802 5.61914 31.6862 5.61914 32.0312ZM9.23242 31.9922C9.91602 31.9922 10.432 32.1436 10.7803 32.4463C11.1318 32.749 11.3076 33.221 11.3076 33.8623V37.5H10.4922L10.2725 36.7334H10.2334C10.0804 36.9287 9.92253 37.0898 9.75977 37.2168C9.59701 37.3438 9.4082 37.4382 9.19336 37.5C8.98177 37.5651 8.72298 37.5977 8.41699 37.5977C8.09473 37.5977 7.80664 37.5391 7.55273 37.4219C7.29883 37.3014 7.09863 37.1191 6.95215 36.875C6.80566 36.6309 6.73242 36.3216 6.73242 35.9473C6.73242 35.3906 6.93913 34.9723 7.35254 34.6924C7.76921 34.4124 8.39746 34.2578 9.2373 34.2285L10.1748 34.1943V33.9111C10.1748 33.5368 10.0869 33.2699 9.91113 33.1104C9.73861 32.9508 9.49447 32.8711 9.17871 32.8711C8.90853 32.8711 8.64648 32.9102 8.39258 32.9883C8.13867 33.0664 7.89128 33.1624 7.65039 33.2764L7.2793 32.4658C7.54297 32.3258 7.84245 32.2119 8.17773 32.124C8.51628 32.0361 8.86784 31.9922 9.23242 31.9922ZM10.1699 34.917L9.47168 34.9414C8.89876 34.9609 8.49674 35.0586 8.26562 35.2344C8.03451 35.4102 7.91895 35.651 7.91895 35.957C7.91895 36.224 7.9987 36.4193 8.1582 36.543C8.31771 36.6634 8.52767 36.7236 8.78809 36.7236C9.18522 36.7236 9.514 36.6113 9.77441 36.3867C10.0381 36.1589 10.1699 35.8252 10.1699 35.3857V34.917ZM16.2637 32.0947H17.5283L15.292 34.6924L17.7188 37.5H16.3955L14.0664 34.7559V37.5H12.9141V32.0947H14.0664V34.7168L16.2637 32.0947ZM20.7168 31.9922C21.4004 31.9922 21.9163 32.1436 22.2646 32.4463C22.6162 32.749 22.792 33.221 22.792 33.8623V37.5H21.9766L21.7568 36.7334H21.7178C21.5648 36.9287 21.4069 37.0898 21.2441 37.2168C21.0814 37.3438 20.8926 37.4382 20.6777 37.5C20.4661 37.5651 20.2074 37.5977 19.9014 37.5977C19.5791 37.5977 19.291 37.5391 19.0371 37.4219C18.7832 37.3014 18.583 37.1191 18.4365 36.875C18.29 36.6309 18.2168 36.3216 18.2168 35.9473C18.2168 35.3906 18.4235 34.9723 18.8369 34.6924C19.2536 34.4124 19.8818 34.2578 20.7217 34.2285L21.6592 34.1943V33.9111C21.6592 33.5368 21.5713 33.2699 21.3955 33.1104C21.223 32.9508 20.9788 32.8711 20.6631 32.8711C20.3929 32.8711 20.1309 32.9102 19.877 32.9883C19.623 33.0664 19.3757 33.1624 19.1348 33.2764L18.7637 32.4658C19.0273 32.3258 19.3268 32.2119 19.6621 32.124C20.0007 32.0361 20.3522 31.9922 20.7168 31.9922ZM21.6543 34.917L20.9561 34.9414C20.3831 34.9609 19.9811 35.0586 19.75 35.2344C19.5189 35.4102 19.4033 35.651 19.4033 35.957C19.4033 36.224 19.4831 36.4193 19.6426 36.543C19.8021 36.6634 20.012 36.7236 20.2725 36.7236C20.6696 36.7236 20.9984 36.6113 21.2588 36.3867C21.5225 36.1589 21.6543 35.8252 21.6543 35.3857V34.917ZM26.0781 31.9922C26.4753 31.9922 26.8317 32.0459 27.1475 32.1533C27.4665 32.2575 27.7188 32.4154 27.9043 32.627C28.0898 32.8385 28.1826 33.1022 28.1826 33.418C28.1826 33.7435 28.0882 34.0039 27.8994 34.1992C27.7139 34.3913 27.4616 34.5296 27.1426 34.6143V34.6582C27.3672 34.7135 27.5706 34.7933 27.7529 34.8975C27.9352 34.9984 28.0801 35.1351 28.1875 35.3076C28.2982 35.4769 28.3535 35.695 28.3535 35.9619C28.3535 36.2646 28.264 36.5397 28.085 36.7871C27.9092 37.0345 27.639 37.2314 27.2744 37.3779C26.9098 37.5244 26.446 37.5977 25.8828 37.5977C25.6126 37.5977 25.3555 37.583 25.1113 37.5537C24.8704 37.5277 24.6507 37.4902 24.4521 37.4414C24.2536 37.3893 24.0811 37.3275 23.9346 37.2559V36.2695C24.1592 36.377 24.431 36.4746 24.75 36.5625C25.069 36.6471 25.4108 36.6895 25.7754 36.6895C26.0456 36.6895 26.2897 36.665 26.5078 36.6162C26.7292 36.5641 26.9033 36.4795 27.0303 36.3623C27.1605 36.2451 27.2256 36.0889 27.2256 35.8936C27.2256 35.7145 27.1686 35.5664 27.0547 35.4492C26.9408 35.332 26.7699 35.2458 26.542 35.1904C26.3141 35.1318 26.026 35.1025 25.6777 35.1025H25.0332V34.2578H25.5996C26.0781 34.2578 26.4525 34.2057 26.7227 34.1016C26.9961 33.9941 27.1328 33.8086 27.1328 33.5449C27.1328 33.3236 27.0368 33.1576 26.8447 33.0469C26.6527 32.9362 26.3581 32.8809 25.9609 32.8809C25.6875 32.8809 25.4173 32.9118 25.1504 32.9736C24.8835 33.0322 24.6165 33.1169 24.3496 33.2275L23.9883 32.3828C24.2845 32.2624 24.6019 32.168 24.9404 32.0996C25.279 32.028 25.6582 31.9922 26.0781 31.9922ZM29.5938 37.5V32.0947H30.7461V34.2529H31.835C32.3428 34.2529 32.7611 34.3115 33.0898 34.4287C33.4186 34.5426 33.6628 34.7152 33.8223 34.9463C33.9818 35.1774 34.0615 35.4671 34.0615 35.8154C34.0615 36.1572 33.985 36.4551 33.832 36.709C33.679 36.9596 33.4398 37.1549 33.1143 37.2949C32.7887 37.4316 32.3623 37.5 31.835 37.5H29.5938ZM30.7461 36.6553H31.7568C32.1019 36.6553 32.3802 36.5934 32.5918 36.4697C32.8066 36.3428 32.9141 36.1344 32.9141 35.8447C32.9141 35.5745 32.8148 35.3841 32.6162 35.2734C32.4209 35.1595 32.1344 35.1025 31.7568 35.1025H30.7461V36.6553ZM34.8965 37.5V32.0947H36.0488V37.5H34.8965Z" fill="#383838"/>
</svg>
