<svg width="42.75" height="26.42" viewBox="0 0 43 27" fill="none" xmlns="http://www.w3.org/2000/svg">
<path d="M27.1719 2.82349H15.6126V23.5958H27.1719V2.82349Z" fill="#FF5F00"/>
<path d="M16.3466 13.2106C16.3448 11.2101 16.7981 9.23536 17.6723 7.43594C18.5464 5.63651 19.8185 4.05954 21.3923 2.82443C19.4434 1.2926 17.1029 0.339981 14.6383 0.0754483C12.1736 -0.189084 9.6843 0.245148 7.45478 1.32851C5.22526 2.41187 3.34551 4.10065 2.0304 6.20183C0.715295 8.30301 0.0178833 10.7318 0.0178833 13.2106C0.0178833 15.6894 0.715295 18.1182 2.0304 20.2194C3.34551 22.3206 5.22526 24.0093 7.45478 25.0927C9.6843 26.1761 12.1736 26.6103 14.6383 26.3458C17.1029 26.0812 19.4434 25.1286 21.3923 23.5968C19.8186 22.3617 18.5465 20.7847 17.6723 18.9853C16.7981 17.1859 16.3448 15.2111 16.3466 13.2106V13.2106Z" fill="#EB001B"/>
<path d="M42.7659 13.2106C42.766 15.6894 42.0687 18.1182 40.7537 20.2193C39.4386 22.3205 37.559 24.0093 35.3295 25.0927C33.1 26.176 30.6107 26.6103 28.1461 26.3458C25.6815 26.0812 23.341 25.1286 21.3922 23.5968C22.9646 22.3604 24.2357 20.7832 25.1097 18.9841C25.9837 17.1849 26.4379 15.2108 26.4379 13.2106C26.4379 11.2104 25.9837 9.23629 25.1097 7.43715C24.2357 5.63801 22.9646 4.06079 21.3922 2.82443C23.341 1.2926 25.6815 0.339975 28.1461 0.075446C30.6107 -0.189083 33.1 0.245157 35.3295 1.32853C37.559 2.41191 39.4386 4.1007 40.7537 6.20187C42.0687 8.30305 42.766 10.7318 42.7659 13.2106V13.2106Z" fill="#F79E1B"/>
<path d="M41.5061 21.3961V20.9708H41.6776V20.8842H41.2408V20.9708H41.4124V21.3961H41.5061ZM42.3539 21.3961V20.8833H42.2201L42.0661 21.236L41.9121 20.8833H41.7781V21.3961H41.8727V21.0093L42.0171 21.3427H42.1151L42.2595 21.0084V21.3961H42.3539Z" fill="#F79E1B"/>
</svg>
