<svg width="50" height="15" viewBox="0 0 50 15" fill="none" xmlns="http://www.w3.org/2000/svg">
<path d="M44.4033 0.165283H35.0396C35.585 3.25623 38.585 6.16535 41.8578 6.16535H49.3124C49.4034 5.89262 49.4033 5.43807 49.4033 5.16534C49.4033 2.43804 47.1306 0.165283 44.4033 0.165283Z" fill="url(#paint0_linear_1_1730)"/>
<path d="M35.8566 6.70947V14.255H40.4021V10.255H44.4021C46.584 10.255 48.4931 8.70949 49.1295 6.70947H35.8566Z" fill="#4FAD50"/>
<path d="M19.856 0.165283V14.1654H23.856C23.856 14.1654 24.856 14.1654 25.4015 13.1654C28.1288 7.80173 28.947 6.16535 28.947 6.16535H29.4924V14.1654H34.0379V0.165283H30.0379C30.0379 0.165283 29.0379 0.256199 28.4924 1.1653C26.2197 5.80171 24.9469 8.16537 24.9469 8.16537H24.4015V0.165283H19.856Z" fill="#4FAD50"/>
<path d="M0.76593 14.2558V0.255615H5.31143C5.31143 0.255615 6.58419 0.255612 7.31147 2.25563C9.12967 7.52842 9.3115 8.25571 9.3115 8.25571C9.3115 8.25571 9.67513 6.98296 11.3115 2.25563C12.0388 0.255612 13.3115 0.255615 13.3115 0.255615H17.857V14.2558H13.3115V6.71024H12.7661L10.2206 14.2558H8.22057L5.6751 6.71024H5.12963V14.2558H0.76593Z" fill="#4FAD50"/>
<defs>
<linearGradient id="paint0_linear_1_1730" x1="35.0234" y1="3.20832" x2="49.3712" y2="3.20832" gradientUnits="userSpaceOnUse">
<stop stop-color="#27B1E6"/>
<stop offset="1" stop-color="#148ACA"/>
</linearGradient>
</defs>
</svg>
