<svg width="45" height="15" viewBox="0 0 45 15" fill="none" xmlns="http://www.w3.org/2000/svg">
<path d="M22.5519 0.45798L19.6123 13.9981H16.0567L18.9966 0.45798H22.5519ZM37.51 9.20101L39.3813 4.11642L40.4583 9.20101H37.51ZM41.4783 13.9981H44.7659L41.8937 0.45798H38.8611C38.1777 0.45798 37.6015 0.848399 37.3465 1.45047L32.0117 13.9981H35.7457L36.4869 11.976H41.0477L41.4783 13.9981ZM32.1968 9.57773C32.2123 6.00426 27.1829 5.80631 27.2166 4.20961C27.2274 3.72447 27.6972 3.20767 28.7241 3.0755C29.2332 3.01094 30.638 2.95856 32.2305 3.68153L32.8534 0.809114C31.9981 0.50427 30.8974 0.210693 29.5277 0.210693C26.0129 0.210693 23.5404 2.05011 23.5206 4.68621C23.498 6.63557 25.2868 7.72247 26.6317 8.37175C28.0184 9.03534 28.483 9.46078 28.4762 10.0537C28.4666 10.9622 27.3705 11.3645 26.3498 11.3797C24.5614 11.4071 23.5246 10.9034 22.6984 10.5239L22.053 13.4923C22.8851 13.8675 24.4182 14.1939 26.0058 14.2107C29.7426 14.2107 32.1857 12.3929 32.1968 9.57773ZM17.4714 0.45798L11.7107 13.9981H7.9529L5.1178 3.19214C4.94594 2.52763 4.79603 2.28339 4.27333 2.00261C3.41835 1.54519 2.00698 1.11731 0.76593 0.851141L0.850007 0.45798H6.89979C7.67038 0.45798 8.3637 0.963211 8.5402 1.83785L10.0378 9.67366L13.7362 0.45798H17.4714Z" fill="#1434CB"/>
</svg>
